<?xml version="1.0" encoding="utf-8"?>
<!-- Generator: Adobe Illustrator 17.0.0, SVG Export Plug-In . SVG Version: 6.00 Build 0)  -->
<!DOCTYPE svg PUBLIC "-//W3C//DTD SVG 1.1//EN" "http://www.w3.org/Graphics/SVG/1.1/DTD/svg11.dtd">
<svg version="1.1" id="Layer_1" xmlns="http://www.w3.org/2000/svg" xmlns:xlink="http://www.w3.org/1999/xlink" x="0px" y="0px"
	 width="18px" height="18px" viewBox="0 0 18 18" enable-background="new 0 0 18 18" xml:space="preserve">
<g>
	<path fill="#616161" d="M53.9,6.007c-4.221,0-7.643,3.422-7.643,7.643s3.422,7.643,7.643,7.643s7.643-3.422,7.643-7.643
		S58.121,6.007,53.9,6.007z M54.522,19.84v-3.435h-1.244v3.435c-2.939-0.292-5.275-2.629-5.567-5.568h3.435v-1.244H47.71
		c0.292-2.939,2.629-5.276,5.568-5.568v3.435h1.245V7.46c2.939,0.292,5.276,2.629,5.568,5.567h-3.435v1.245h3.435
		C59.798,17.211,57.461,19.548,54.522,19.84z"/>
</g>
<path fill="#5D5D5D" d="M9,3.03c-4.045,0-7.335,3.291-7.335,7.335C1.665,14.41,4.955,17.7,9,17.7c4.045,0,7.335-3.29,7.335-7.335
	C16.335,6.321,13.045,3.03,9,3.03z M15.256,10.365c0,1.431-0.485,2.751-1.296,3.806c-0.229-0.18-0.473-0.663-0.244-1.165
	c0.231-0.504,0.291-1.671,0.239-2.126c-0.051-0.454-0.287-1.548-0.928-1.559c-0.64-0.01-1.079-0.221-1.46-0.98
	c-0.789-1.58,1.482-1.883,0.692-2.759c-0.221-0.245-1.362,1.011-1.53-0.664c-0.011-0.119,0.103-0.298,0.256-0.484
	C13.465,5.268,15.256,7.61,15.256,10.365z M8.14,4.171C7.991,4.463,7.596,4.581,7.356,4.8C6.834,5.273,6.609,5.208,6.327,5.661
	C6.044,6.115,5.13,6.769,5.13,7.097c0,0.328,0.462,0.715,0.692,0.64C6.054,7.661,6.662,7.665,7.02,7.791
	c0.358,0.127,2.991,0.253,2.152,2.479c-0.266,0.707-1.431,0.588-1.741,1.76c-0.046,0.171-0.207,0.906-0.218,1.146
	c-0.019,0.371,0.263,1.771-0.096,1.771c-0.36,0-1.328-1.252-1.328-1.479c0-0.227-0.251-1.023-0.251-1.704
	c0-0.681-1.159-0.67-1.159-1.576c0-0.817,0.629-1.223,0.487-1.615C4.728,8.184,3.623,8.17,3.163,8.123
	C3.967,6.036,5.859,4.487,8.14,4.171z M7.033,16.301c0.376-0.198,0.414-0.454,0.755-0.469c0.39-0.018,0.707-0.152,1.146-0.248
	c0.39-0.085,1.087-0.481,1.702-0.532c0.517-0.042,1.539,0.027,1.815,0.527c-0.99,0.657-2.176,1.041-3.449,1.041
	C8.312,16.621,7.652,16.508,7.033,16.301z"/>
</svg>
